<svg width="583" height="260" viewBox="0 0 583 260" fill="none" xmlns="http://www.w3.org/2000/svg">
<g filter="url(#filter0_d_5527_1351)">
<path d="M335.5 0H256.5C234.685 0 217 17.6848 217 39.5001V118.5C217 140.315 234.685 158 256.5 158H335.5C357.316 158 375 140.315 375 118.5V39.5001C375 17.6848 357.316 0 335.5 0Z" fill="#20283D"/>
</g>
<g filter="url(#filter1_d_5527_1351)">
<path d="M335.5 0H256.5C234.685 0 217 17.6848 217 39.5001V118.5C217 140.315 234.685 158 256.5 158H335.5C357.316 158 375 140.315 375 118.5V39.5001C375 17.6848 357.316 0 335.5 0Z" fill="#20283D"/>
</g>
<path d="M346.002 36.7216H248.625V24.5366H346.002V36.7216ZM319.771 85.4613H309.486V95.7576C305.651 101.545 303.4 108.43 303.4 115.924C303.4 117.995 303.643 120.006 303.947 122.016H248.625V85.4613H242.539V73.2764L248.625 42.814H346.002L352.088 73.2764V81.5012C348.254 80.1609 344.176 79.3689 339.916 79.3689C332.43 79.3689 325.553 81.6231 319.771 85.4613ZM297.314 85.4613H260.797V109.831H297.314V85.4613ZM354.157 96.6715L332.308 118.543L322.631 108.856L315.572 115.924L332.308 134.201L361.217 105.262L354.157 96.6715Z" fill="white"/>
<path d="M351.315 92.2695H326.165C319.22 92.2695 313.59 97.5685 313.59 104.105V127.776C313.59 134.313 319.22 139.611 326.165 139.611H351.315C358.261 139.611 363.891 134.313 363.891 127.776V104.105C363.891 97.5685 358.261 92.2695 351.315 92.2695Z" fill="#20283D"/>
<path d="M349.286 102.145L346.872 104.664L337.146 114.391L334.312 111.662L331.793 109.143L326.859 114.076L329.378 116.595L334.627 121.844L337.041 124.363L339.56 121.844L351.805 109.597L354.324 107.078L349.286 102.145Z" fill="#2ACB82"/>
<g clip-path="url(#clip0_5527_1351)" filter="url(#filter2_d_5527_1351)">
<path d="M359.871 96.8123L340.13 88.7187C339.885 88.6183 339.622 88.5667 339.357 88.5667C339.092 88.5667 338.83 88.6183 338.585 88.7187L318.844 96.8123C318.476 96.9629 318.162 97.2177 317.941 97.5445C317.72 97.8713 317.602 98.2554 317.602 98.6483V108.485C317.6 115.106 319.596 121.576 323.336 127.071C327.075 132.566 332.388 136.836 338.596 139.336C339.085 139.533 339.632 139.533 340.12 139.336C346.328 136.836 351.64 132.566 355.38 127.071C359.119 121.576 361.115 115.106 361.113 108.487V98.6495C361.113 98.2563 360.995 97.8719 360.774 97.5449C360.553 97.2179 360.239 96.963 359.871 96.8123V96.8123ZM357.084 108.487C357.085 114.177 355.41 119.746 352.262 124.513C349.114 129.28 344.63 133.04 339.356 135.336C334.082 133.04 329.598 129.28 326.451 124.513C323.303 119.746 321.628 114.177 321.628 108.487V99.9763L339.356 92.7091L357.084 99.9763V108.487ZM337.131 115.191L345.791 106.642C345.978 106.457 346.2 106.311 346.444 106.211C346.689 106.111 346.951 106.059 347.215 106.059C347.48 106.059 347.742 106.111 347.986 106.211C348.23 106.311 348.452 106.457 348.639 106.642C348.827 106.826 348.975 107.046 349.076 107.287C349.177 107.528 349.229 107.787 349.229 108.048C349.229 108.309 349.177 108.568 349.076 108.809C348.975 109.051 348.827 109.27 348.639 109.455L338.555 119.409C338.177 119.781 337.665 119.991 337.131 119.991C336.597 119.991 336.084 119.781 335.706 119.409L330.077 113.851C329.699 113.478 329.487 112.972 329.487 112.444C329.487 111.917 329.7 111.411 330.077 111.038C330.455 110.665 330.968 110.455 331.502 110.455C332.037 110.456 332.549 110.665 332.927 111.038L337.131 115.191Z" fill="#2ACB82"/>
</g>
<path d="M82.2675 240V233.612L107.672 197.965H82.2178V189.091H121.195V195.479L95.7654 231.126H121.245V240H82.2675ZM146.706 240.746C142.778 240.746 139.397 239.95 136.563 238.359C133.746 236.752 131.575 234.482 130.051 231.548C128.526 228.598 127.764 225.11 127.764 221.083C127.764 217.156 128.526 213.709 130.051 210.742C131.575 207.776 133.721 205.464 136.489 203.807C139.273 202.15 142.538 201.321 146.283 201.321C148.802 201.321 151.147 201.727 153.318 202.539C155.505 203.335 157.411 204.536 159.035 206.143C160.676 207.751 161.952 209.773 162.863 212.209C163.775 214.628 164.23 217.462 164.23 220.71V223.619H131.99V217.056H154.262C154.262 215.531 153.931 214.181 153.268 213.004C152.605 211.828 151.685 210.908 150.509 210.245C149.349 209.566 147.998 209.226 146.457 209.226C144.849 209.226 143.424 209.599 142.181 210.344C140.955 211.074 139.994 212.06 139.298 213.303C138.602 214.529 138.246 215.896 138.229 217.404V223.643C138.229 225.533 138.577 227.165 139.273 228.54C139.986 229.916 140.988 230.977 142.281 231.722C143.573 232.468 145.106 232.841 146.88 232.841C148.056 232.841 149.133 232.675 150.111 232.344C151.089 232.012 151.926 231.515 152.622 230.852C153.318 230.189 153.848 229.377 154.213 228.416L164.007 229.062C163.51 231.416 162.49 233.471 160.949 235.227C159.425 236.967 157.452 238.326 155.033 239.304C152.63 240.265 149.854 240.746 146.706 240.746ZM181.73 217.926V240H171.141V201.818H181.233V208.555H181.681C182.526 206.334 183.943 204.577 185.931 203.285C187.92 201.976 190.331 201.321 193.165 201.321C195.817 201.321 198.128 201.901 200.1 203.061C202.072 204.221 203.605 205.878 204.699 208.033C205.793 210.17 206.34 212.723 206.34 215.689V240H195.75V217.578C195.767 215.241 195.17 213.419 193.96 212.109C192.751 210.784 191.085 210.121 188.964 210.121C187.539 210.121 186.279 210.427 185.186 211.04C184.108 211.654 183.263 212.549 182.65 213.725C182.054 214.885 181.747 216.286 181.73 217.926ZM248.642 205.547C248.294 204.337 247.805 203.268 247.175 202.34C246.545 201.396 245.775 200.6 244.863 199.954C243.968 199.291 242.941 198.786 241.781 198.438C240.638 198.089 239.37 197.915 237.978 197.915C235.376 197.915 233.089 198.562 231.117 199.854C229.161 201.147 227.637 203.028 226.543 205.497C225.449 207.95 224.902 210.949 224.902 214.496C224.902 218.042 225.441 221.058 226.518 223.544C227.595 226.03 229.12 227.927 231.092 229.237C233.064 230.529 235.392 231.175 238.077 231.175C240.513 231.175 242.593 230.745 244.316 229.883C246.057 229.004 247.382 227.77 248.294 226.179C249.222 224.588 249.686 222.707 249.686 220.536L251.873 220.859H238.748V212.756H260.052V219.169C260.052 223.643 259.107 227.488 257.218 230.703C255.329 233.902 252.727 236.371 249.412 238.111C246.098 239.834 242.303 240.696 238.027 240.696C233.255 240.696 229.062 239.644 225.449 237.539C221.837 235.418 219.019 232.41 216.998 228.516C214.992 224.605 213.99 219.964 213.99 214.595C213.99 210.469 214.586 206.79 215.78 203.558C216.989 200.31 218.68 197.559 220.851 195.305C223.022 193.052 225.549 191.336 228.432 190.16C231.316 188.983 234.44 188.395 237.804 188.395C240.687 188.395 243.372 188.817 245.858 189.663C248.343 190.491 250.548 191.668 252.47 193.192C254.409 194.717 255.991 196.532 257.218 198.636C258.444 200.724 259.231 203.028 259.579 205.547H248.642ZM292.423 223.743V201.818H303.012V240H292.845V233.065H292.448C291.586 235.302 290.152 237.1 288.147 238.459C286.159 239.818 283.731 240.497 280.864 240.497C278.312 240.497 276.066 239.917 274.127 238.757C272.188 237.597 270.672 235.948 269.578 233.81C268.501 231.673 267.954 229.112 267.938 226.129V201.818H278.527V224.24C278.544 226.494 279.149 228.275 280.342 229.585C281.535 230.894 283.134 231.548 285.139 231.548C286.416 231.548 287.609 231.258 288.719 230.678C289.829 230.082 290.724 229.203 291.404 228.043C292.1 226.883 292.439 225.45 292.423 223.743ZM322.37 240.721C319.934 240.721 317.763 240.298 315.858 239.453C313.952 238.591 312.444 237.324 311.334 235.65C310.24 233.96 309.693 231.855 309.693 229.336C309.693 227.215 310.082 225.433 310.861 223.991C311.64 222.55 312.701 221.39 314.043 220.511C315.385 219.633 316.91 218.97 318.617 218.523C320.34 218.075 322.147 217.76 324.036 217.578C326.257 217.346 328.046 217.131 329.405 216.932C330.764 216.716 331.75 216.402 332.363 215.987C332.977 215.573 333.283 214.96 333.283 214.148V213.999C333.283 212.424 332.786 211.206 331.792 210.344C330.814 209.483 329.422 209.052 327.616 209.052C325.71 209.052 324.193 209.474 323.066 210.32C321.94 211.148 321.194 212.192 320.829 213.452L311.035 212.656C311.532 210.336 312.51 208.331 313.968 206.641C315.427 204.934 317.308 203.625 319.611 202.713C321.931 201.785 324.616 201.321 327.665 201.321C329.786 201.321 331.816 201.57 333.755 202.067C335.711 202.564 337.443 203.335 338.951 204.379C340.475 205.423 341.677 206.765 342.555 208.406C343.433 210.03 343.873 211.977 343.873 214.247V240H333.83V234.705H333.532C332.919 235.898 332.098 236.951 331.071 237.862C330.043 238.757 328.809 239.461 327.367 239.975C325.925 240.472 324.26 240.721 322.37 240.721ZM325.403 233.413C326.961 233.413 328.336 233.106 329.53 232.493C330.723 231.863 331.659 231.018 332.339 229.957C333.018 228.897 333.358 227.695 333.358 226.353V222.301C333.026 222.517 332.571 222.715 331.991 222.898C331.427 223.063 330.789 223.221 330.076 223.37C329.364 223.503 328.651 223.627 327.939 223.743C327.226 223.842 326.58 223.933 326 224.016C324.757 224.199 323.671 224.489 322.743 224.886C321.815 225.284 321.094 225.823 320.581 226.502C320.067 227.165 319.81 227.994 319.81 228.988C319.81 230.43 320.332 231.532 321.376 232.294C322.437 233.04 323.779 233.413 325.403 233.413ZM352.088 240V201.818H362.354V208.48H362.752C363.448 206.11 364.617 204.321 366.257 203.111C367.898 201.884 369.787 201.271 371.925 201.271C372.455 201.271 373.027 201.304 373.64 201.371C374.253 201.437 374.792 201.528 375.256 201.644V211.04C374.759 210.891 374.071 210.759 373.193 210.643C372.314 210.527 371.511 210.469 370.781 210.469C369.224 210.469 367.832 210.808 366.605 211.488C365.395 212.151 364.434 213.079 363.722 214.272C363.026 215.465 362.678 216.841 362.678 218.398V240H352.088ZM393.023 240.621C390.123 240.621 387.496 239.876 385.143 238.384C382.806 236.876 380.95 234.664 379.575 231.747C378.216 228.814 377.536 225.218 377.536 220.959C377.536 216.584 378.241 212.946 379.649 210.046C381.058 207.129 382.931 204.95 385.267 203.509C387.621 202.05 390.197 201.321 392.998 201.321C395.136 201.321 396.917 201.686 398.343 202.415C399.784 203.127 400.944 204.022 401.823 205.099C402.718 206.16 403.397 207.204 403.861 208.232H404.184V189.091H414.749V240H404.309V233.885H403.861C403.364 234.946 402.66 235.998 401.748 237.042C400.853 238.069 399.685 238.923 398.243 239.602C396.818 240.282 395.078 240.621 393.023 240.621ZM396.379 232.195C398.086 232.195 399.527 231.731 400.704 230.803C401.897 229.858 402.809 228.54 403.438 226.85C404.085 225.16 404.408 223.179 404.408 220.909C404.408 218.639 404.093 216.667 403.463 214.993C402.834 213.319 401.922 212.027 400.729 211.115C399.536 210.204 398.086 209.748 396.379 209.748C394.639 209.748 393.172 210.22 391.979 211.165C390.786 212.109 389.883 213.419 389.269 215.092C388.656 216.766 388.35 218.705 388.35 220.909C388.35 223.13 388.656 225.094 389.269 226.8C389.899 228.491 390.802 229.817 391.979 230.778C393.172 231.722 394.639 232.195 396.379 232.195ZM440.856 240.746C436.928 240.746 433.548 239.95 430.714 238.359C427.897 236.752 425.726 234.482 424.201 231.548C422.676 228.598 421.914 225.11 421.914 221.083C421.914 217.156 422.676 213.709 424.201 210.742C425.726 207.776 427.872 205.464 430.639 203.807C433.423 202.15 436.688 201.321 440.433 201.321C442.952 201.321 445.297 201.727 447.468 202.539C449.656 203.335 451.561 204.536 453.185 206.143C454.826 207.751 456.102 209.773 457.014 212.209C457.925 214.628 458.381 217.462 458.381 220.71V223.619H426.14V217.056H448.413C448.413 215.531 448.081 214.181 447.418 213.004C446.756 211.828 445.836 210.908 444.659 210.245C443.499 209.566 442.149 209.226 440.607 209.226C439 209.226 437.575 209.599 436.332 210.344C435.105 211.074 434.144 212.06 433.448 213.303C432.752 214.529 432.396 215.896 432.379 217.404V223.643C432.379 225.533 432.727 227.165 433.423 228.54C434.136 229.916 435.139 230.977 436.431 231.722C437.724 232.468 439.257 232.841 441.03 232.841C442.207 232.841 443.284 232.675 444.261 232.344C445.239 232.012 446.076 231.515 446.772 230.852C447.468 230.189 447.998 229.377 448.363 228.416L458.157 229.062C457.66 231.416 456.641 233.471 455.1 235.227C453.575 236.967 451.603 238.326 449.183 239.304C446.78 240.265 444.005 240.746 440.856 240.746ZM475.881 217.926V240H465.291V201.818H475.384V208.555H475.831C476.676 206.334 478.093 204.577 480.082 203.285C482.07 201.976 484.482 201.321 487.315 201.321C489.967 201.321 492.279 201.901 494.251 203.061C496.223 204.221 497.756 205.878 498.85 208.033C499.943 210.17 500.49 212.723 500.49 215.689V240H489.901V217.578C489.917 215.241 489.321 213.419 488.111 212.109C486.901 210.784 485.236 210.121 483.114 210.121C481.689 210.121 480.43 210.427 479.336 211.04C478.259 211.654 477.414 212.549 476.801 213.725C476.204 214.885 475.897 216.286 475.881 217.926Z" fill="#2ACB82"/>
<defs>
<filter id="filter0_d_5527_1351" x="213" y="0" width="166" height="166" filterUnits="userSpaceOnUse" color-interpolation-filters="sRGB">
<feFlood flood-opacity="0" result="BackgroundImageFix"/>
<feColorMatrix in="SourceAlpha" type="matrix" values="0 0 0 0 0 0 0 0 0 0 0 0 0 0 0 0 0 0 127 0" result="hardAlpha"/>
<feOffset dy="4"/>
<feGaussianBlur stdDeviation="2"/>
<feComposite in2="hardAlpha" operator="out"/>
<feColorMatrix type="matrix" values="0 0 0 0 0 0 0 0 0 0 0 0 0 0 0 0 0 0 0.25 0"/>
<feBlend mode="normal" in2="BackgroundImageFix" result="effect1_dropShadow_5527_1351"/>
<feBlend mode="normal" in="SourceGraphic" in2="effect1_dropShadow_5527_1351" result="shape"/>
</filter>
<filter id="filter1_d_5527_1351" x="213" y="0" width="166" height="166" filterUnits="userSpaceOnUse" color-interpolation-filters="sRGB">
<feFlood flood-opacity="0" result="BackgroundImageFix"/>
<feColorMatrix in="SourceAlpha" type="matrix" values="0 0 0 0 0 0 0 0 0 0 0 0 0 0 0 0 0 0 127 0" result="hardAlpha"/>
<feOffset dy="4"/>
<feGaussianBlur stdDeviation="2"/>
<feComposite in2="hardAlpha" operator="out"/>
<feColorMatrix type="matrix" values="0 0 0 0 0 0 0 0 0 0 0 0 0 0 0 0 0 0 0.25 0"/>
<feBlend mode="normal" in2="BackgroundImageFix" result="effect1_dropShadow_5527_1351"/>
<feBlend mode="normal" in="SourceGraphic" in2="effect1_dropShadow_5527_1351" result="shape"/>
</filter>
<filter id="filter2_d_5527_1351" x="313.602" y="88.5664" width="51.5117" height="58.918" filterUnits="userSpaceOnUse" color-interpolation-filters="sRGB">
<feFlood flood-opacity="0" result="BackgroundImageFix"/>
<feColorMatrix in="SourceAlpha" type="matrix" values="0 0 0 0 0 0 0 0 0 0 0 0 0 0 0 0 0 0 127 0" result="hardAlpha"/>
<feOffset dy="4"/>
<feGaussianBlur stdDeviation="2"/>
<feComposite in2="hardAlpha" operator="out"/>
<feColorMatrix type="matrix" values="0 0 0 0 0 0 0 0 0 0 0 0 0 0 0 0 0 0 0.25 0"/>
<feBlend mode="normal" in2="BackgroundImageFix" result="effect1_dropShadow_5527_1351"/>
<feBlend mode="normal" in="SourceGraphic" in2="effect1_dropShadow_5527_1351" result="shape"/>
</filter>
<clipPath id="clip0_5527_1351">
<rect width="43.5117" height="50.918" fill="white" transform="translate(317.602 88.5664)"/>
</clipPath>
</defs>
</svg>
