<svg width="821" height="170" viewBox="0 0 821 170" fill="none" xmlns="http://www.w3.org/2000/svg">
<path d="M195.54 117V107.874L231.832 56.9503H195.469V44.2727H251.151V53.3991L214.822 104.322H251.222V117H195.54ZM287.594 118.065C281.983 118.065 277.154 116.929 273.105 114.656C269.081 112.36 265.98 109.116 263.801 104.926C261.623 100.712 260.534 95.7287 260.534 89.9759C260.534 84.3651 261.623 79.4408 263.801 75.2031C265.98 70.9654 269.045 67.6629 272.999 65.2955C276.976 62.928 281.64 61.7443 286.99 61.7443C290.589 61.7443 293.939 62.3243 297.04 63.4844C300.165 64.6207 302.888 66.3371 305.208 68.6335C307.551 70.9299 309.374 73.8182 310.676 77.2983C311.979 80.7547 312.63 84.803 312.63 89.4432V93.598H266.571V84.223H298.39C298.39 82.045 297.916 80.1155 296.969 78.4347C296.022 76.7538 294.708 75.4399 293.027 74.4929C291.37 73.5223 289.441 73.0369 287.239 73.0369C284.943 73.0369 282.907 73.5696 281.131 74.6349C279.379 75.6766 278.006 77.0852 277.012 78.8608C276.017 80.6127 275.508 82.5658 275.485 84.7202V93.6335C275.485 96.3324 275.982 98.6643 276.976 100.629C277.994 102.594 279.426 104.109 281.273 105.175C283.12 106.24 285.31 106.773 287.843 106.773C289.524 106.773 291.062 106.536 292.459 106.062C293.856 105.589 295.051 104.879 296.046 103.932C297.04 102.985 297.798 101.825 298.319 100.452L312.31 101.375C311.6 104.737 310.144 107.672 307.942 110.182C305.764 112.668 302.947 114.609 299.49 116.006C296.058 117.379 292.092 118.065 287.594 118.065ZM337.63 85.4659V117H322.502V62.4545H336.919V72.0781H337.559C338.766 68.9058 340.79 66.3963 343.631 64.5497C346.472 62.6795 349.917 61.7443 353.965 61.7443C357.753 61.7443 361.055 62.5729 363.873 64.2301C366.69 65.8873 368.88 68.2547 370.442 71.3324C372.005 74.3864 372.786 78.0322 372.786 82.2699V117H357.658V84.9688C357.682 81.6307 356.829 79.0265 355.101 77.1562C353.373 75.2623 350.994 74.3153 347.963 74.3153C345.927 74.3153 344.128 74.7533 342.566 75.6293C341.027 76.5052 339.819 77.7836 338.944 79.4645C338.091 81.1217 337.653 83.1222 337.63 85.4659ZM433.217 67.7812C432.72 66.053 432.022 64.526 431.122 63.2003C430.223 61.8509 429.122 60.7145 427.82 59.7912C426.541 58.8442 425.073 58.1222 423.416 57.625C421.783 57.1278 419.972 56.8793 417.983 56.8793C414.266 56.8793 410.999 57.8026 408.182 59.6491C405.388 61.4957 403.21 64.1828 401.648 67.7102C400.085 71.214 399.304 75.4991 399.304 80.5653C399.304 85.6316 400.073 89.9403 401.612 93.4915C403.151 97.0426 405.329 99.7533 408.146 101.624C410.964 103.47 414.29 104.393 418.125 104.393C421.605 104.393 424.576 103.778 427.038 102.547C429.524 101.292 431.418 99.5284 432.72 97.2557C434.046 94.983 434.709 92.2959 434.709 89.1946L437.834 89.6562H419.084V78.0795H449.517V87.2415C449.517 93.6335 448.168 99.1259 445.469 103.719C442.77 108.288 439.053 111.815 434.318 114.301C429.583 116.763 424.162 117.994 418.054 117.994C411.236 117.994 405.246 116.491 400.085 113.484C394.924 110.454 390.9 106.157 388.011 100.594C385.147 95.0066 383.714 88.3778 383.714 80.7074C383.714 74.8125 384.567 69.5568 386.271 64.9403C388 60.3002 390.414 56.3703 393.516 53.1506C396.617 49.9309 400.227 47.4806 404.347 45.7997C408.466 44.1188 412.929 43.2784 417.734 43.2784C421.854 43.2784 425.689 43.8821 429.24 45.0895C432.791 46.2732 435.94 47.9541 438.686 50.1321C441.456 52.3101 443.717 54.9025 445.469 57.9091C447.221 60.892 448.345 64.1828 448.842 67.7812H433.217ZM495.762 93.7756V62.4545H510.89V117H496.365V107.092H495.797C494.566 110.288 492.518 112.857 489.654 114.798C486.813 116.74 483.345 117.71 479.249 117.71C475.603 117.71 472.395 116.882 469.625 115.224C466.855 113.567 464.689 111.212 463.127 108.158C461.588 105.104 460.807 101.446 460.783 97.1847V62.4545H475.911V94.4858C475.935 97.7055 476.799 100.25 478.503 102.121C480.208 103.991 482.492 104.926 485.357 104.926C487.18 104.926 488.884 104.512 490.471 103.683C492.057 102.831 493.335 101.576 494.306 99.919C495.3 98.2618 495.785 96.214 495.762 93.7756ZM538.544 118.03C535.064 118.03 531.963 117.426 529.24 116.219C526.518 114.988 524.363 113.177 522.777 110.786C521.214 108.371 520.433 105.364 520.433 101.766C520.433 98.7353 520.99 96.1903 522.102 94.1307C523.215 92.071 524.73 90.4138 526.648 89.1591C528.565 87.9044 530.743 86.9574 533.182 86.3182C535.644 85.679 538.224 85.2292 540.923 84.9688C544.096 84.6373 546.652 84.3295 548.594 84.0455C550.535 83.7377 551.944 83.2879 552.82 82.696C553.696 82.1042 554.134 81.2282 554.134 80.0682V79.8551C554.134 77.6061 553.423 75.866 552.003 74.6349C550.606 73.4039 548.617 72.7884 546.037 72.7884C543.314 72.7884 541.148 73.392 539.538 74.5994C537.929 75.7831 536.863 77.2746 536.342 79.0739L522.351 77.9375C523.061 74.6231 524.458 71.7585 526.541 69.3438C528.625 66.9053 531.312 65.035 534.602 63.733C537.917 62.4072 541.752 61.7443 546.108 61.7443C549.138 61.7443 552.038 62.0994 554.808 62.8097C557.602 63.5199 560.076 64.6207 562.23 66.1122C564.408 67.6037 566.125 69.5213 567.379 71.8651C568.634 74.1851 569.261 76.9669 569.261 80.2102V117H554.915V109.436H554.489C553.613 111.141 552.441 112.644 550.973 113.946C549.505 115.224 547.741 116.231 545.682 116.964C543.622 117.675 541.243 118.03 538.544 118.03ZM542.876 107.589C545.102 107.589 547.067 107.152 548.771 106.276C550.476 105.376 551.813 104.169 552.784 102.653C553.755 101.138 554.24 99.4219 554.24 97.5043V91.7159C553.767 92.0237 553.116 92.3078 552.287 92.5682C551.482 92.8049 550.571 93.0298 549.553 93.2429C548.535 93.4323 547.517 93.6098 546.499 93.7756C545.481 93.9176 544.557 94.0478 543.729 94.1662C541.953 94.4266 540.402 94.8409 539.077 95.4091C537.751 95.9773 536.721 96.7467 535.987 97.7173C535.253 98.6643 534.886 99.848 534.886 101.268C534.886 103.328 535.632 104.902 537.124 105.991C538.639 107.057 540.556 107.589 542.876 107.589ZM580.998 117V62.4545H595.664V71.9716H596.232C597.227 68.5862 598.896 66.0294 601.239 64.3011C603.583 62.5492 606.282 61.6733 609.336 61.6733C610.094 61.6733 610.91 61.7206 611.786 61.8153C612.662 61.91 613.432 62.0402 614.094 62.206V75.6293C613.384 75.4162 612.402 75.2268 611.147 75.0611C609.892 74.8954 608.744 74.8125 607.702 74.8125C605.477 74.8125 603.488 75.2978 601.737 76.2685C600.008 77.2154 598.635 78.5412 597.617 80.2457C596.623 81.9503 596.126 83.9152 596.126 86.1406V117H580.998ZM639.476 117.888C635.333 117.888 631.581 116.822 628.219 114.692C624.881 112.537 622.23 109.377 620.265 105.21C618.323 101.02 617.353 95.8826 617.353 89.7983C617.353 83.5483 618.359 78.3518 620.371 74.2088C622.383 70.0421 625.059 66.929 628.397 64.8693C631.758 62.786 635.44 61.7443 639.441 61.7443C642.495 61.7443 645.04 62.2652 647.076 63.3068C649.135 64.3248 650.792 65.6032 652.047 67.142C653.326 68.6572 654.296 70.1487 654.959 71.6165H655.421V44.2727H670.513V117H655.598V108.264H654.959C654.249 109.779 653.243 111.283 651.941 112.774C650.662 114.242 648.993 115.461 646.934 116.432C644.898 117.402 642.412 117.888 639.476 117.888ZM644.27 105.849C646.709 105.849 648.768 105.187 650.449 103.861C652.154 102.511 653.456 100.629 654.355 98.2145C655.279 95.7997 655.74 92.9706 655.74 89.7273C655.74 86.4839 655.291 83.6667 654.391 81.2756C653.491 78.8845 652.189 77.0379 650.485 75.7358C648.78 74.4337 646.709 73.7827 644.27 73.7827C641.784 73.7827 639.689 74.4574 637.985 75.8068C636.28 77.1562 634.99 79.0265 634.114 81.4176C633.238 83.8087 632.8 86.5786 632.8 89.7273C632.8 92.8996 633.238 95.705 634.114 98.1435C635.014 100.558 636.304 102.452 637.985 103.825C639.689 105.175 641.784 105.849 644.27 105.849ZM707.809 118.065C702.198 118.065 697.369 116.929 693.32 114.656C689.296 112.36 686.194 109.116 684.016 104.926C681.838 100.712 680.749 95.7287 680.749 89.9759C680.749 84.3651 681.838 79.4408 684.016 75.2031C686.194 70.9654 689.26 67.6629 693.214 65.2955C697.191 62.928 701.855 61.7443 707.205 61.7443C710.804 61.7443 714.154 62.3243 717.255 63.4844C720.38 64.6207 723.103 66.3371 725.423 68.6335C727.766 70.9299 729.589 73.8182 730.891 77.2983C732.193 80.7547 732.844 84.803 732.844 89.4432V93.598H686.786V84.223H718.604C718.604 82.045 718.131 80.1155 717.184 78.4347C716.237 76.7538 714.923 75.4399 713.242 74.4929C711.585 73.5223 709.656 73.0369 707.454 73.0369C705.157 73.0369 703.121 73.5696 701.346 74.6349C699.594 75.6766 698.221 77.0852 697.227 78.8608C696.232 80.6127 695.723 82.5658 695.7 84.7202V93.6335C695.7 96.3324 696.197 98.6643 697.191 100.629C698.209 102.594 699.641 104.109 701.488 105.175C703.335 106.24 705.524 106.773 708.058 106.773C709.738 106.773 711.277 106.536 712.674 106.062C714.071 105.589 715.266 104.879 716.261 103.932C717.255 102.985 718.013 101.825 718.533 100.452L732.525 101.375C731.815 104.737 730.359 107.672 728.157 110.182C725.979 112.668 723.162 114.609 719.705 116.006C716.272 117.379 712.307 118.065 707.809 118.065ZM757.844 85.4659V117H742.717V62.4545H757.134V72.0781H757.773C758.981 68.9058 761.005 66.3963 763.846 64.5497C766.687 62.6795 770.131 61.7443 774.18 61.7443C777.968 61.7443 781.27 62.5729 784.087 64.2301C786.905 65.8873 789.094 68.2547 790.657 71.3324C792.219 74.3864 793.001 78.0322 793.001 82.2699V117H777.873V84.9688C777.897 81.6307 777.044 79.0265 775.316 77.1562C773.588 75.2623 771.209 74.3153 768.178 74.3153C766.142 74.3153 764.343 74.7533 762.781 75.6293C761.242 76.5052 760.034 77.7836 759.158 79.4645C758.306 81.1217 757.868 83.1222 757.844 85.4659Z" fill="#2ACB82"/>
<g filter="url(#filter0_d_5541_1320)">
<path d="M125.5 0H44.5C22.1325 0 4 18.1325 4 40.5001V121.5C4 143.868 22.1325 162 44.5 162H125.5C147.868 162 166 143.868 166 121.5V40.5001C166 18.1325 147.868 0 125.5 0Z" fill="#E8E9EB"/>
</g>
<g filter="url(#filter1_d_5541_1320)">
<path d="M125.5 0H44.5C22.1325 0 4 18.1325 4 40.5001V121.5C4 143.868 22.1325 162 44.5 162H125.5C147.868 162 166 143.868 166 121.5V40.5001C166 18.1325 147.868 0 125.5 0Z" fill="#E8E9EB"/>
</g>
<path d="M134.082 37.4934H34.2401V25H134.082V37.4934ZM107.187 87.4671H96.6414V98.024C92.7101 103.958 90.4013 111.017 90.4013 118.701C90.4013 120.825 90.6509 122.886 90.9629 124.947H34.2401V87.4671H28V74.9737L34.2401 43.7401H134.082L140.322 74.9737V83.4067C136.391 82.0325 132.21 81.2204 127.842 81.2204C120.167 81.2204 113.115 83.5317 107.187 87.4671ZM84.1611 87.4671H46.7204V112.454H84.1611V87.4671ZM142.444 98.961L120.042 121.387L110.12 111.454L102.882 118.701L120.042 137.441L149.682 107.769L142.444 98.961Z" fill="#20283D"/>
<path d="M141.25 96H115.75C108.708 96 103 101.373 103 108V132C103 138.627 108.708 144 115.75 144H141.25C148.292 144 154 138.627 154 132V108C154 101.373 148.292 96 141.25 96Z" fill="#E8E9EB"/>
<path d="M139.839 105.875L137.165 108.665L126.392 119.437L123.254 116.415L120.464 113.625L115 119.089L117.79 121.879L123.602 127.691L126.276 130.481L129.066 127.691L142.629 114.129L145.419 111.339L139.839 105.875Z" fill="#2ACB82"/>
<g clip-path="url(#clip0_5541_1320)">
<path d="M151.63 100.069L129.852 91.1675C129.582 91.0571 129.292 91.0002 129 91.0002C128.707 91.0002 128.418 91.0571 128.148 91.1675L106.37 100.069C105.965 100.235 105.618 100.515 105.374 100.874C105.13 101.234 105 101.656 105 102.088V112.907C104.998 120.188 107.2 127.304 111.325 133.348C115.451 139.391 121.312 144.087 128.16 146.837C128.699 147.053 129.303 147.053 129.841 146.837C136.689 144.087 142.55 139.391 146.675 133.348C150.8 127.305 153.002 120.189 153 112.908V102.089C153 101.657 152.87 101.234 152.626 100.875C152.382 100.515 152.035 100.235 151.63 100.069V100.069ZM148.556 112.908C148.557 119.167 146.708 125.291 143.236 130.534C139.763 135.777 134.817 139.913 128.999 142.437C123.181 139.913 118.234 135.777 114.762 130.534C111.29 125.291 109.441 119.167 109.442 112.908V103.549L128.999 95.5561L148.556 103.549V112.908ZM126.544 120.282L136.097 110.879C136.303 110.676 136.548 110.515 136.818 110.405C137.087 110.295 137.376 110.239 137.668 110.239C137.96 110.239 138.249 110.295 138.519 110.405C138.788 110.515 139.033 110.676 139.239 110.879C139.446 111.083 139.61 111.324 139.721 111.589C139.833 111.854 139.89 112.139 139.89 112.426C139.89 112.713 139.833 112.998 139.721 113.263C139.61 113.529 139.446 113.77 139.239 113.973L128.115 124.92C127.698 125.331 127.133 125.561 126.544 125.561C125.954 125.561 125.389 125.331 124.972 124.92L118.762 118.808C118.345 118.398 118.111 117.841 118.111 117.261C118.112 116.681 118.346 116.124 118.763 115.714C119.18 115.304 119.745 115.074 120.335 115.074C120.924 115.074 121.489 115.304 121.906 115.715L126.544 120.282Z" fill="#2ACB82"/>
</g>
<defs>
<filter id="filter0_d_5541_1320" x="0" y="0" width="170" height="170" filterUnits="userSpaceOnUse" color-interpolation-filters="sRGB">
<feFlood flood-opacity="0" result="BackgroundImageFix"/>
<feColorMatrix in="SourceAlpha" type="matrix" values="0 0 0 0 0 0 0 0 0 0 0 0 0 0 0 0 0 0 127 0" result="hardAlpha"/>
<feOffset dy="4"/>
<feGaussianBlur stdDeviation="2"/>
<feComposite in2="hardAlpha" operator="out"/>
<feColorMatrix type="matrix" values="0 0 0 0 0 0 0 0 0 0 0 0 0 0 0 0 0 0 0.25 0"/>
<feBlend mode="normal" in2="BackgroundImageFix" result="effect1_dropShadow_5541_1320"/>
<feBlend mode="normal" in="SourceGraphic" in2="effect1_dropShadow_5541_1320" result="shape"/>
</filter>
<filter id="filter1_d_5541_1320" x="0" y="0" width="170" height="170" filterUnits="userSpaceOnUse" color-interpolation-filters="sRGB">
<feFlood flood-opacity="0" result="BackgroundImageFix"/>
<feColorMatrix in="SourceAlpha" type="matrix" values="0 0 0 0 0 0 0 0 0 0 0 0 0 0 0 0 0 0 127 0" result="hardAlpha"/>
<feOffset dy="4"/>
<feGaussianBlur stdDeviation="2"/>
<feComposite in2="hardAlpha" operator="out"/>
<feColorMatrix type="matrix" values="0 0 0 0 0 0 0 0 0 0 0 0 0 0 0 0 0 0 0.25 0"/>
<feBlend mode="normal" in2="BackgroundImageFix" result="effect1_dropShadow_5541_1320"/>
<feBlend mode="normal" in="SourceGraphic" in2="effect1_dropShadow_5541_1320" result="shape"/>
</filter>
<clipPath id="clip0_5541_1320">
<rect width="48" height="56" fill="white" transform="translate(105 91)"/>
</clipPath>
</defs>
</svg>
