<svg width="909" height="160" viewBox="0 0 909 160" fill="none" xmlns="http://www.w3.org/2000/svg">
<path d="M190.647 124V113.048L234.198 51.9403H190.562V36.7273H257.38V47.679L213.786 108.787H257.465V124H190.647ZM271.624 124V36.7273H330.431V51.9403H290.076V72.7358H327.405V87.9489H290.076V108.787H330.601V124H271.624ZM418.098 36.7273V124H402.16L364.191 69.071H363.552V124H345.1V36.7273H361.294L398.964 91.6136H399.731V36.7273H418.098Z" fill="#837D7D"/>
<path d="M491.212 64.9375C490.615 62.8636 489.777 61.0312 488.698 59.4403C487.618 57.821 486.297 56.4574 484.735 55.3494C483.201 54.2131 481.439 53.3466 479.451 52.75C477.49 52.1534 475.317 51.8551 472.931 51.8551C468.47 51.8551 464.55 52.9631 461.169 55.179C457.817 57.3949 455.203 60.6193 453.328 64.8523C451.453 69.0568 450.516 74.1989 450.516 80.2784C450.516 86.358 451.439 91.5284 453.286 95.7898C455.132 100.051 457.746 103.304 461.127 105.548C464.507 107.764 468.499 108.872 473.101 108.872C477.277 108.872 480.843 108.134 483.797 106.656C486.78 105.151 489.053 103.034 490.615 100.307C492.206 97.5795 493.002 94.3551 493.002 90.6335L496.752 91.1875H474.252V77.2955H510.772V88.2898C510.772 95.9602 509.152 102.551 505.914 108.062C502.675 113.545 498.215 117.778 492.533 120.761C486.851 123.716 480.345 125.193 473.016 125.193C464.834 125.193 457.647 123.389 451.453 119.781C445.26 116.145 440.431 110.989 436.965 104.312C433.527 97.608 431.808 89.6534 431.808 80.4489C431.808 73.375 432.831 67.0682 434.877 61.5284C436.951 55.9602 439.848 51.2443 443.57 47.3807C447.291 43.517 451.624 40.5767 456.567 38.5597C461.51 36.5426 466.865 35.5341 472.632 35.5341C477.576 35.5341 482.178 36.2585 486.439 37.7074C490.701 39.1278 494.479 41.1449 497.774 43.7585C501.098 46.3722 503.811 49.483 505.914 53.0909C508.016 56.6705 509.365 60.6193 509.962 64.9375H491.212ZM578.538 36.7273H596.99V93.4034C596.99 99.767 595.47 105.335 592.43 110.108C589.419 114.881 585.2 118.602 579.774 121.273C574.348 123.915 568.027 125.236 560.811 125.236C553.566 125.236 547.231 123.915 541.805 121.273C536.379 118.602 532.16 114.881 529.149 110.108C526.137 105.335 524.632 99.767 524.632 93.4034V36.7273H543.083V91.8267C543.083 95.1506 543.808 98.1051 545.257 100.69C546.734 103.276 548.808 105.307 551.478 106.784C554.149 108.261 557.259 109 560.811 109C564.39 109 567.501 108.261 570.143 106.784C572.813 105.307 574.873 103.276 576.322 100.69C577.799 98.1051 578.538 95.1506 578.538 91.8267V36.7273ZM627.213 124H607.441L637.568 36.7273H661.347L691.432 124H671.659L649.799 56.6705H649.117L627.213 124ZM625.977 89.696H672.682V104.099H625.977V89.696ZM701.936 124V36.7273H736.368C742.959 36.7273 748.584 37.9062 753.243 40.2642C757.931 42.5937 761.496 45.9034 763.939 50.1932C766.411 54.4545 767.647 59.4687 767.647 65.2358C767.647 71.0312 766.397 76.017 763.897 80.1932C761.397 84.3409 757.774 87.5227 753.03 89.7386C748.314 91.9545 742.604 93.0625 735.899 93.0625H712.845V78.233H732.916C736.439 78.233 739.365 77.75 741.695 76.7841C744.024 75.8182 745.757 74.3693 746.894 72.4375C748.058 70.5057 748.641 68.1051 748.641 65.2358C748.641 62.3381 748.058 59.8949 746.894 57.9062C745.757 55.9176 744.01 54.4119 741.652 53.3892C739.323 52.3381 736.382 51.8125 732.831 51.8125H720.388V124H701.936ZM749.067 84.2841L770.757 124H750.388L729.166 84.2841H749.067ZM811.624 124H780.686V36.7273H811.879C820.658 36.7273 828.215 38.4744 834.55 41.9688C840.885 45.4347 845.757 50.4205 849.166 56.9261C852.604 63.4318 854.323 71.2159 854.323 80.2784C854.323 89.3693 852.604 97.1818 849.166 103.716C845.757 110.25 840.857 115.264 834.465 118.759C828.101 122.253 820.487 124 811.624 124ZM799.138 108.19H810.857C816.311 108.19 820.899 107.224 824.621 105.293C828.371 103.332 831.183 100.307 833.058 96.2159C834.962 92.0966 835.914 86.7841 835.914 80.2784C835.914 73.8295 834.962 68.5597 833.058 64.4688C831.183 60.3778 828.385 57.3665 824.664 55.4347C820.942 53.5028 816.354 52.5369 810.899 52.5369H799.138V108.19Z" fill="#7CC562"/>
<path d="M123.409 0H43.4087C21.3173 0 3.40869 17.9086 3.40869 40.0001V120C3.40869 142.092 21.3173 160 43.4087 160H123.409C145.5 160 163.409 142.092 163.409 120V40.0001C163.409 17.9086 145.5 0 123.409 0Z" fill="#7CC562"/>
<g filter="url(#filter0_d_5653_1318)">
<rect x="12.4839" y="90.4512" width="47.4728" height="30.1819" transform="rotate(-37.6696 12.4839 90.4512)" fill="#B6E7A4"/>
<path d="M126.088 39.9249L114.773 49.4503L69.4196 86.0156L59.2573 72.8263L50.2754 60.7025L27.2722 79.2482L36.2541 91.372L54.9665 116.63L63.5166 128.698L75.2629 119.228L132.363 73.1926L144.109 63.7224L126.088 39.9249Z" fill="white"/>
</g>
<path d="M123.406 0H43.4058C21.3144 0 3.40576 17.9086 3.40576 40.0001V120C3.40576 142.092 21.3144 160 43.4058 160H123.406C145.497 160 163.406 142.092 163.406 120V40.0001C163.406 17.9086 145.497 0 123.406 0Z" fill="#7CC562"/>
<g filter="url(#filter1_d_5653_1318)">
<rect x="4.35449" y="80.0176" width="57.0217" height="30.1819" transform="rotate(-38.2037 4.35449 80.0176)" fill="#837D7D"/>
<path d="M143.198 47.6041L131.883 57.1295L86.5295 93.6948L76.3672 80.5055L67.3852 68.3817L44.382 86.9274L53.364 99.0512L72.0763 124.309L80.6265 136.377L92.3728 126.907L149.473 80.8718L161.219 71.4016L143.198 47.6041Z" fill="white"/>
</g>
<path d="M123.409 0H43.4087C21.3173 0 3.40869 17.9086 3.40869 40.0001V120C3.40869 142.092 21.3173 160 43.4087 160H123.409C145.5 160 163.409 142.092 163.409 120V40.0001C163.409 17.9086 145.5 0 123.409 0Z" fill="#7CC562"/>
<g filter="url(#filter2_d_5653_1318)">
<rect x="12.4839" y="90.4512" width="47.4728" height="30.1819" transform="rotate(-37.6696 12.4839 90.4512)" fill="#B6E7A4"/>
<path d="M126.088 39.9249L114.773 49.4503L69.4196 86.0156L59.2573 72.8263L50.2754 60.7025L27.2722 79.2482L36.2541 91.372L54.9665 116.63L63.5166 128.698L75.2629 119.228L132.363 73.1926L144.109 63.7224L126.088 39.9249Z" fill="white"/>
</g>
<path d="M123.406 0H43.4058C21.3144 0 3.40576 17.9086 3.40576 40.0001V120C3.40576 142.092 21.3144 160 43.4058 160H123.406C145.497 160 163.406 142.092 163.406 120V40.0001C163.406 17.9086 145.497 0 123.406 0Z" fill="#7CC562"/>
<g filter="url(#filter3_d_5653_1318)">
<rect x="4.35449" y="80.0176" width="57.0217" height="30.1819" transform="rotate(-38.2037 4.35449 80.0176)" fill="#837D7D"/>
<path d="M143.198 47.6041L131.883 57.1295L86.5295 93.6948L76.3672 80.5055L67.3852 68.3817L44.382 86.9274L53.364 99.0512L72.0763 124.309L80.6265 136.377L92.3728 126.907L149.473 80.8718L161.219 71.4016L143.198 47.6041Z" fill="white"/>
</g>
<defs>
<filter id="filter0_d_5653_1318" x="8.48389" y="39.9248" width="139.625" height="96.7734" filterUnits="userSpaceOnUse" color-interpolation-filters="sRGB">
<feFlood flood-opacity="0" result="BackgroundImageFix"/>
<feColorMatrix in="SourceAlpha" type="matrix" values="0 0 0 0 0 0 0 0 0 0 0 0 0 0 0 0 0 0 127 0" result="hardAlpha"/>
<feOffset dy="4"/>
<feGaussianBlur stdDeviation="2"/>
<feComposite in2="hardAlpha" operator="out"/>
<feColorMatrix type="matrix" values="0 0 0 0 0 0 0 0 0 0 0 0 0 0 0 0 0 0 0.25 0"/>
<feBlend mode="normal" in2="BackgroundImageFix" result="effect1_dropShadow_5653_1318"/>
<feBlend mode="normal" in="SourceGraphic" in2="effect1_dropShadow_5653_1318" result="shape"/>
</filter>
<filter id="filter1_d_5653_1318" x="0.354492" y="44.752" width="164.865" height="99.6255" filterUnits="userSpaceOnUse" color-interpolation-filters="sRGB">
<feFlood flood-opacity="0" result="BackgroundImageFix"/>
<feColorMatrix in="SourceAlpha" type="matrix" values="0 0 0 0 0 0 0 0 0 0 0 0 0 0 0 0 0 0 127 0" result="hardAlpha"/>
<feOffset dy="4"/>
<feGaussianBlur stdDeviation="2"/>
<feComposite in2="hardAlpha" operator="out"/>
<feColorMatrix type="matrix" values="0 0 0 0 0 0 0 0 0 0 0 0 0 0 0 0 0 0 0.25 0"/>
<feBlend mode="normal" in2="BackgroundImageFix" result="effect1_dropShadow_5653_1318"/>
<feBlend mode="normal" in="SourceGraphic" in2="effect1_dropShadow_5653_1318" result="shape"/>
</filter>
<filter id="filter2_d_5653_1318" x="8.48389" y="39.9248" width="139.625" height="96.7734" filterUnits="userSpaceOnUse" color-interpolation-filters="sRGB">
<feFlood flood-opacity="0" result="BackgroundImageFix"/>
<feColorMatrix in="SourceAlpha" type="matrix" values="0 0 0 0 0 0 0 0 0 0 0 0 0 0 0 0 0 0 127 0" result="hardAlpha"/>
<feOffset dy="4"/>
<feGaussianBlur stdDeviation="2"/>
<feComposite in2="hardAlpha" operator="out"/>
<feColorMatrix type="matrix" values="0 0 0 0 0 0 0 0 0 0 0 0 0 0 0 0 0 0 0.25 0"/>
<feBlend mode="normal" in2="BackgroundImageFix" result="effect1_dropShadow_5653_1318"/>
<feBlend mode="normal" in="SourceGraphic" in2="effect1_dropShadow_5653_1318" result="shape"/>
</filter>
<filter id="filter3_d_5653_1318" x="0.354492" y="44.752" width="164.865" height="99.6255" filterUnits="userSpaceOnUse" color-interpolation-filters="sRGB">
<feFlood flood-opacity="0" result="BackgroundImageFix"/>
<feColorMatrix in="SourceAlpha" type="matrix" values="0 0 0 0 0 0 0 0 0 0 0 0 0 0 0 0 0 0 127 0" result="hardAlpha"/>
<feOffset dy="4"/>
<feGaussianBlur stdDeviation="2"/>
<feComposite in2="hardAlpha" operator="out"/>
<feColorMatrix type="matrix" values="0 0 0 0 0 0 0 0 0 0 0 0 0 0 0 0 0 0 0.25 0"/>
<feBlend mode="normal" in2="BackgroundImageFix" result="effect1_dropShadow_5653_1318"/>
<feBlend mode="normal" in="SourceGraphic" in2="effect1_dropShadow_5653_1318" result="shape"/>
</filter>
</defs>
</svg>
